#!OML:ASF F:\VICON\USERDATA\INSTALL\rory3\rory3.ASF
:FULLY-SPECIFIED
:DEGREES
477
root -0.603112 17.9554 -1.64222 166.187 -68.0005 -171.789
lowerback 18.1127 -1.59285 2.28548
upperback 1.16768 -1.53722 3.14669
thorax -8.8767 -0.838799 2.51573
lowerneck 7.38396 -18.6445 -12.6786
upperneck -4.94649 -25.6508 14.7493
head 0.884334 -13.0945 5.82794
rclavicle 3.84648e-014 -2.38542e-015
rhumerus -25.5766 -16.4469 -69.842
rradius 25.5281
rwrist 1.81047
rhand -13.6885 5.97789
rfingers 7.12502
rthumb 12.4295 -23.6325
lclavicle 3.84648e-014 -2.38542e-015
lhumerus -34.303 2.07413 87.9106
lradius 46.6439
lwrist 12.2786
lhand -15.0783 56.7726
lfingers 7.12502
lthumb 11.0893 -993.54
rfemur -0.969162 6.61958 26.9671
rtibia 30.0537
rfoot -19.493 -7.32873
rtoes 24.4311
lfemur -12.5913 6.6607 -16.8001
ltibia 48.1275
lfoot -8.55716 -5.8548
ltoes -8.56572
478
root -0.593902 17.9594 -1.61826 165.547 -67.886 -171.186
lowerback 18.1317 -1.61238 2.30227
upperback 1.29356 -1.56409 3.26756
thorax -8.74548 -0.855289 2.64124
lowerneck 7.14762 -18.6737 -12.8539
upperneck -4.75135 -25.6954 14.7322
head 1.00309 -13.104 5.79753
rclavicle 3.57812e-014 -2.70347e-014
rhumerus -23.8984 -15.8044 -70.5094
rradius 25.7345
rwrist 2.48751
rhand -13.0027 5.86491
rfingers 7.12502
rthumb 13.0906 -23.7043
lclavicle 3.57812e-014 -2.70347e-014
lhumerus -33.6579 0.145735 89.0358
lradius 49.1554
lwrist 12.5744
lhand -14.9959 56.3263
lfingers 7.12502
lthumb 11.1687 -993.991
rfemur -0.783959 6.90218 27.164
rtibia 29.7456
rfoot -19.3942 -7.21401
rtoes 25.1335
lfemur -13.6898 6.76351 -16.1584
ltibia 49.7486
lfoot -6.89491 -7.24915
ltoes -10.028
479
root -0.592848 17.9675 -1.61884 164.674 -67.6737 -170.531
lowerback 18.1924 -1.52451 2.14651
upperback 1.42839 -1.48261 3.38466
thorax -8.62639 -0.813335 2.83464
lowerneck 6.95148 -18.7697 -12.7795
upperneck -4.43589 -25.8213 14.4835
head 1.09873 -13.1516 5.67419
rclavicle 4.57205e-015 -5.48646e-014
rhumerus -22.4804 -14.9197 -71.1985
rradius 26.0339
rwrist 2.72137
rhand -12.9197 5.95714
rfingers 7.12502
rthumb 13.1706 -23.6069
lclavicle 4.57205e-015 -5.48646e-014
lhumerus -33.193 -1.67205 89.9629
lradius 51.5421
lwrist 12.2701
lhand -14.9593 55.6833
lfingers 7.12502
lthumb 11.204 -994.636
rfemur -0.265721 7.22098 27.5915
rtibia 29.3242
rfoot -19.2501 -7.41154
rtoes 25.8069
lfemur -14.4376 7.34371 -15.1958
ltibia 51.2098
lfoot -5.06335 -9.1754
ltoes -13.2189
480
root -0.589602 17.9754 -1.59909 163.615 -67.3791 -169.566
lowerback 18.3761 -1.58201 2.38289
upperback 1.46547 -1.50637 3.45223
thorax -8.69071 -0.83563 2.78693
lowerneck 6.82224 -18.7492 -12.4741
upperneck -4.18967 -25.7691 14.0665
head 1.08917 -13.1125 5.5167
rclavicle -1.97294e-014 -1.98785e-014
rhumerus -21.0436 -13.4969 -72.1431
rradius 26.3811
rwrist 2.14537
rhand -13.5701 6.2049
rfingers 7.12502
rthumb 12.5436 -23.3986
lclavicle -1.97294e-014 -1.98785e-014
lhumerus -32.8102 -3.14597 90.674
lradius 53.9126
lwrist 11.9252
lhand -15.5727 55.4893
lfingers 7.12502
lthumb 10.6124 -994.799
rfemur 0.321221 7.44079 28.0448
rtibia 28.426
rfoot -18.7147 -7.66908
rtoes 25.8588
lfemur -15.4296 7.62743 -14.1928
ltibia 52.9187
lfoot -3.63283 -10.9525
ltoes -18.4535
481
root -0.586486 17.9826 -1.56352 162.494 -67.1179 -168.498
lowerback 18.629 -1.7908 2.75026
upperback 1.46459 -1.69984 3.47082
thorax -8.83582 -0.944264 2.66019
lowerneck 6.71468 -18.5768 -12.2889
upperneck -3.88025 -25.537 13.8476
head 1.11607 -12.9889 5.43615
rclavicle 2.70347e-014 -5.88403e-014
rhumerus -19.6922 -11.901 -73.2329
rradius 26.9248
rwrist 1.6313
rhand -13.5882 6.21397
rfingers 7.12502
rthumb 12.5262 -23.3906
lclavicle 2.70347e-014 -5.88403e-014
lhumerus -32.6162 -4.57839 91.1177
lradius 56.5253
lwrist 11.7661
lhand -15.6256 54.8987
lfingers 7.12502
lthumb 10.5614 -995.387
rfemur 0.563473 7.35709 28.3927
rtibia 28.0562
rfoot -18.3029 -7.60795
rtoes 25.251
lfemur -16.2283 7.42906 -13.2154
ltibia 54.0674
lfoot -2.07265 -12.4409
ltoes -24.1163
482
root -0.565365 17.9473 -1.53386 153.826 -64.3248 -159.239
lowerback 19.2223 -1.90216 6.83402
upperback 1.51289 -0.94456 4.5631
thorax -9.17212 -0.766171 1.37925
lowerneck 6.61464 -18.4192 -12.1158
upperneck -3.488 -25.3417 13.7875
head 1.19512 -12.888 5.38884
rclavicle -3.68746e-014 -2.22639e-014
rhumerus -18.5824 -9.87137 -74.1616
rradius 27.6899
rwrist 0.989823
rhand -12.7171 6.19245
rfingers 7.12502
rthumb 13.3659 -23.3588
lclavicle -3.68746e-014 -2.22639e-014
lhumerus -32.7888 -6.87212 91.4154
lradius 59.5296
lwrist 11.6533
lhand -14.8925 54.0787
lfingers 7.12502
lthumb 11.2684 -996.244
rfemur 0.85515 8.31689 33.413
rtibia 27.5779
rfoot -17.4507 -7.84483
rtoes 24.6926
lfemur -17.2377 8.73151 -7.20073
ltibia 55.7801
lfoot -0.550543 -14.5283
ltoes -31.3008
483
root -0.598264 17.9903 -1.52485 162.768 -66.3483 -169.037
lowerback 18.5897 -1.62305 2.09499
upperback 1.57566 -1.62711 3.39144
thorax -8.67801 -0.886971 2.92064
lowerneck 6.44133 -18.2944 -12.2456
upperneck -3.12146 -25.2037 13.8289
head 1.33504 -12.8111 5.38487
rclavicle -1.1281e-014 -2.06736e-014
rhumerus -17.594 -10.6927 -74.4405
rradius 29.0086
rwrist 2.63062
rhand -10.8543 6.53496
rfingers 7.12502
rthumb 15.1608 -22.8897
lclavicle -1.1281e-014 -2.06736e-014
lhumerus -32.1428 -7.31123 91.6213
lradius 61.1668
lwrist 9.36114
lhand -14.0181 53.2891
lfingers 7.12502
lthumb 12.1117 -997.081
rfemur 1.13163 7.47925 28.2365
rtibia 27.438
rfoot -17.591 -7.24917
rtoes 25.8149
lfemur -17.5596 8.67978 -11.9076
ltibia 56.1344
lfoot -0.168552 -15.7249
ltoes -29.1893
484
root -0.60885 17.9977 -1.42669 161.525 -65.845 -167.326
lowerback 18.4962 -1.84111 3.65326
upperback 1.45834 -1.59549 3.45311
thorax -8.7964 -0.932481 2.09677
lowerneck 6.23742 -18.1876 -12.7709
upperneck -2.71281 -25.126 14.1148
head 1.5799 -12.7637 5.4714
rclavicle 6.33626e-014 -3.81667e-014
rhumerus -16.3092 -9.4166 -74.9204
rradius 29.5345
rwrist 1.84611
rhand -10.7636 6.4922
rfingers 7.12502
rthumb 15.2482 -22.9258
lclavicle 6.33626e-014 -3.81667e-014
lhumerus -31.8567 -8.84619 92.174
lradius 63.4987
lwrist 8.94316
lhand -13.1451 49.6171
lfingers 7.12502
lthumb 12.9533 -1000.81
rfemur 0.598986 6.55227 28.3616
rtibia 27.1444
rfoot -17.0513 -6.28715
rtoes 26.6673
lfemur -18.9601 7.76313 -11.0708
ltibia 57.1379
lfoot -0.492943 -16.2486
ltoes -28.5442
485
root -0.611902 18.0081 -1.40634 161.231 -65.288 -167.418
lowerback 18.9599 -1.7011 3.52925
upperback 1.47938 -1.41917 3.36136
thorax -9.02962 -0.845927 2.03964
lowerneck 6.17486 -18.1941 -12.7038
upperneck -2.25816 -25.173 14.0446
head 1.71317 -12.782 5.4097
rclavicle -2.56929e-014 2.78299e-014
rhumerus -15.5242 -8.60199 -75.6209
rradius 30.2274
rwrist 1.24282
rhand -11.4533 6.65437
rfingers 7.12502
rthumb 14.5837 -22.8129
lclavicle -2.56929e-014 2.78299e-014
lhumerus -31.8597 -10.6697 92.4621
lradius 65.8407
lwrist 8.57639
lhand -3.4112 35.6936
lfingers 7.12502
lthumb 22.3193 -1015.58
rfemur 1.20493 7.29846 28.6296
rtibia 26.9062
rfoot -17.0265 -6.66214
rtoes 25.1262
lfemur -18.9255 7.75674 -10.2301
ltibia 57.7342
lfoot -1.06779 -18.1062
ltoes -28.191
486
root -0.618756 18.0204 -1.37798 161.459 -64.506 -167.639
lowerback 19.0569 -1.50479 3.46327
upperback 1.37199 -1.16587 3.21907
thorax -9.20494 -0.721671 1.86126
lowerneck 6.13724 -18.2418 -12.1148
upperneck -1.87503 -25.2234 13.6233
head 1.71165 -12.8015 5.21383
rclavicle -1.30949e-014 7.95139e-016
rhumerus -15.0208 -8.29591 -76.4499
rradius 31.3265
rwrist 1.00349
rhand -11.5668 6.93546
rfingers 7.12502
rthumb 14.4744 -22.5397
lclavicle -1.30949e-014 7.95139e-016
lhumerus -31.9592 -12.5086 92.7495
lradius 68.3202
lwrist 9.42064
lhand -16.5613 52.0732
lfingers 7.12502
lthumb 9.65866 -998.168
rfemur 1.38715 8.07939 28.7029
rtibia 26.514
rfoot -16.5823 -6.50819
rtoes 19.9151
lfemur -19.1698 6.96504 -9.69832
ltibia 58.2988
lfoot -1.48892 -18.8904
ltoes -27.6247
487
root -0.614988 17.9834 -1.41075 153.9 -62.1829 -160.653
lowerback 20.1842 -1.4644 5.88555
upperback 1.7947 -0.530193 4.38199
thorax -9.36902 -0.540138 1.62393
lowerneck 6.14111 -18.2089 -12.0747
upperneck -1.57344 -25.216 13.653
head 1.79922 -12.7976 5.20178
rclavicle -3.36195e-014 -5.88403e-014
rhumerus -14.3558 -7.58611 -77.107
rradius 32.5252
rwrist 0.787057
rhand -11.3875 6.85268
rfingers 7.12502
rthumb 14.6471 -22.61
lclavicle -3.36195e-014 -5.88403e-014
lhumerus -31.7364 -13.5242 92.7851
lradius 70.2052
lwrist 8.62136
lhand -16.4671 50.0536
lfingers 7.12502
lthumb 9.74955 -1000.19
rfemur 3.11819 9.9826 33.528
rtibia 25.9334
rfoot -16.1791 -7.82041
rtoes 19.6577
lfemur -18.2778 7.66472 -4.08111
ltibia 59.1343
lfoot -0.602383 -20.8609
ltoes -25.0604
